<svg width="66" height="20" viewBox="0 0 66 20" fill="none" xmlns="http://www.w3.org/2000/svg">
<rect width="66" height="20" fill="#333333"/>
<rect width="66" height="20" fill="#333333"/>
<path d="M24.679 7.993C24.679 7.265 24.8493 6.66067 25.19 6.18C25.5353 5.69933 25.9997 5.34 26.583 5.102C27.1663 4.85933 27.815 4.738 28.529 4.738C29.285 4.738 29.957 4.836 30.545 5.032C31.1377 5.228 31.6043 5.52667 31.945 5.928C32.2857 6.32933 32.456 6.838 32.456 7.454C32.456 7.95333 32.3113 8.39433 32.022 8.777C31.7327 9.155 31.2613 9.456 30.608 9.68C30.9813 9.78267 31.3267 9.939 31.644 10.149C31.9613 10.359 32.2157 10.6273 32.407 10.954C32.5983 11.2807 32.694 11.6727 32.694 12.13C32.694 12.6247 32.5843 13.061 32.365 13.439C32.1457 13.817 31.8423 14.1343 31.455 14.391C31.0677 14.6477 30.6197 14.839 30.111 14.965C29.6023 15.091 29.0587 15.154 28.48 15.154C27.668 15.1493 26.975 15.0163 26.401 14.755C25.8317 14.489 25.393 14.111 25.085 13.621C24.7817 13.131 24.6253 12.5477 24.616 11.871H26.583C26.681 12.445 26.905 12.8603 27.255 13.117C27.605 13.3737 28.0203 13.502 28.501 13.502C28.921 13.502 29.2803 13.4413 29.579 13.32C29.8823 13.1987 30.1133 13.0307 30.272 12.816C30.4353 12.5967 30.517 12.347 30.517 12.067C30.517 11.7777 30.433 11.528 30.265 11.318C30.1017 11.108 29.873 10.9447 29.579 10.828C29.285 10.7067 28.949 10.6413 28.571 10.632L27.605 10.597V8.973L28.473 8.924C28.837 8.91 29.1543 8.84233 29.425 8.721C29.6957 8.59967 29.9057 8.43867 30.055 8.238C30.209 8.03267 30.286 7.80167 30.286 7.545C30.286 7.29767 30.209 7.083 30.055 6.901C29.901 6.719 29.6887 6.57667 29.418 6.474C29.1473 6.37133 28.837 6.32 28.487 6.32C28.165 6.32 27.8687 6.37367 27.598 6.481C27.3273 6.58833 27.1057 6.76567 26.933 7.013C26.7603 7.25567 26.66 7.58233 26.632 7.993H24.679ZM37.1523 15V7.762H39.1543V8.784C39.3737 8.46667 39.6677 8.19367 40.0363 7.965C40.4097 7.73633 40.8787 7.622 41.4433 7.622C41.6907 7.622 41.9427 7.66633 42.1993 7.755C42.456 7.84367 42.6963 7.97433 42.9203 8.147C43.149 8.315 43.3333 8.52733 43.4733 8.784C43.7067 8.45267 44.0123 8.17733 44.3903 7.958C44.773 7.734 45.1977 7.622 45.6643 7.622C45.935 7.622 46.208 7.66633 46.4833 7.755C46.7633 7.84367 47.02 7.98833 47.2533 8.189C47.4867 8.38967 47.6733 8.658 47.8133 8.994C47.958 9.32533 48.0303 9.736 48.0303 10.226V15H45.9863V10.478C45.9863 10.1887 45.928 9.95767 45.8113 9.785C45.6993 9.60767 45.5547 9.48167 45.3773 9.407C45.2047 9.32767 45.0203 9.288 44.8243 9.288C44.6423 9.288 44.458 9.32533 44.2713 9.4C44.0847 9.47 43.926 9.58433 43.7953 9.743C43.6647 9.90167 43.5993 10.1093 43.5993 10.366V15H41.5623V10.296C41.5623 10.0767 41.504 9.89233 41.3873 9.743C41.2707 9.59367 41.1237 9.48167 40.9463 9.407C40.7737 9.32767 40.5963 9.288 40.4143 9.288C40.2277 9.288 40.041 9.32767 39.8543 9.407C39.6677 9.48167 39.5113 9.60067 39.3853 9.764C39.2593 9.92267 39.1963 10.1233 39.1963 10.366V15H37.1523ZM51.7475 7.762V15H49.7945V7.762H51.7475ZM51.7685 4.885V6.726H49.7805V4.885H51.7685ZM53.6406 15V7.762H55.6496V8.784C55.7616 8.60667 55.9063 8.43633 56.0836 8.273C56.2656 8.105 56.4943 7.96733 56.7696 7.86C57.045 7.75267 57.3716 7.699 57.7496 7.699C58.193 7.699 58.606 7.78533 58.9886 7.958C59.376 8.13067 59.6886 8.40367 59.9266 8.777C60.1646 9.14567 60.2836 9.62867 60.2836 10.226V15H58.2396V10.478C58.2396 10.086 58.123 9.792 57.8896 9.596C57.6563 9.4 57.3716 9.302 57.0356 9.302C56.8116 9.302 56.5946 9.34167 56.3846 9.421C56.1793 9.50033 56.0113 9.61933 55.8806 9.778C55.75 9.93667 55.6846 10.1327 55.6846 10.366V15H53.6406Z" fill="white"/>
<rect width="20" height="20" fill="#333333"/>
<rect width="20" height="20" fill="#B9232D"/>
<path d="M6.20756 4.98015L15.1877 10.2106L6.1679 15.3724L6.20756 4.98015Z" fill="white"/>
</svg>
