<svg width="112" height="38" viewBox="0 0 112 38" fill="none" xmlns="http://www.w3.org/2000/svg">
<rect width="112" height="38" rx="19" fill="#0B7BC1"/>
<path d="M57.528 25V13.432C57.5653 13.432 57.6773 13.4347 57.864 13.44C58.056 13.44 58.288 13.44 58.56 13.44C58.832 13.4347 59.1147 13.4347 59.408 13.44C59.7013 13.44 59.9707 13.4427 60.216 13.448C61.6347 13.4693 62.784 13.7013 63.664 14.144C64.5493 14.5813 65.1973 15.2187 65.608 16.056C66.024 16.8933 66.232 17.9227 66.232 19.144C66.232 20.424 66.008 21.4987 65.56 22.368C65.1173 23.2373 64.44 23.8933 63.528 24.336C62.6213 24.7787 61.4667 25 60.064 25H57.528ZM59.048 23.728H60.064C61.0187 23.728 61.84 23.5813 62.528 23.288C63.216 22.9893 63.744 22.5067 64.112 21.84C64.4853 21.1733 64.672 20.2827 64.672 19.168C64.672 18.0533 64.4907 17.1707 64.128 16.52C63.7707 15.8693 63.2533 15.4053 62.576 15.128C61.8987 14.8453 61.0827 14.704 60.128 14.704H59.048V23.728ZM71.8138 25.16C71.0458 25.16 70.3684 24.992 69.7818 24.656C69.1951 24.32 68.7364 23.8373 68.4058 23.208C68.0751 22.5787 67.9098 21.824 67.9098 20.944C67.9098 20.0747 68.0591 19.312 68.3578 18.656C68.6564 18 69.0884 17.488 69.6538 17.12C70.2244 16.752 70.9098 16.568 71.7098 16.568C72.4884 16.568 73.1471 16.736 73.6858 17.072C74.2244 17.408 74.6324 17.8827 74.9098 18.496C75.1924 19.104 75.3338 19.8267 75.3338 20.664V21.208H69.4058C69.4058 21.7307 69.4911 22.2053 69.6618 22.632C69.8378 23.0533 70.1018 23.3893 70.4538 23.64C70.8058 23.8907 71.2511 24.016 71.7898 24.016C72.3178 24.016 72.7711 23.8933 73.1498 23.648C73.5338 23.4027 73.7791 23.048 73.8858 22.584H75.2778C75.1817 23.144 74.9578 23.616 74.6058 24C74.2591 24.384 73.8404 24.6747 73.3498 24.872C72.8644 25.064 72.3524 25.16 71.8138 25.16ZM69.4138 20.208H73.9098C73.9098 19.7333 73.8298 19.3067 73.6698 18.928C73.5098 18.544 73.2644 18.2427 72.9338 18.024C72.6084 17.8 72.1978 17.688 71.7018 17.688C71.1844 17.688 70.7551 17.8133 70.4138 18.064C70.0724 18.3093 69.8191 18.6267 69.6538 19.016C69.4884 19.4 69.4084 19.7973 69.4138 20.208ZM79.4683 25.104C79.0203 25.104 78.6576 25.0427 78.3803 24.92C78.1083 24.7973 77.8976 24.632 77.7483 24.424C77.6043 24.216 77.5056 23.9787 77.4523 23.712C77.4043 23.44 77.3803 23.16 77.3803 22.872V13.112H78.8363V22.728C78.8363 23.144 78.9163 23.456 79.0763 23.664C79.2416 23.872 79.4709 23.9867 79.7643 24.008L80.2123 24.016V24.976C80.0896 25.0133 79.9616 25.0427 79.8283 25.064C79.6949 25.0907 79.5749 25.104 79.4683 25.104ZM84.4659 25.16C83.9272 25.16 83.4525 25.0667 83.0419 24.88C82.6365 24.688 82.3165 24.4133 82.0819 24.056C81.8525 23.6987 81.7379 23.2667 81.7379 22.76C81.7379 21.8427 82.0579 21.16 82.6979 20.712C83.3379 20.264 84.3645 20.024 85.7779 19.992L87.2499 19.952V19.304C87.2499 18.7973 87.0979 18.3973 86.7939 18.104C86.4899 17.8053 86.0205 17.656 85.3859 17.656C84.9112 17.6613 84.4925 17.7733 84.1299 17.992C83.7672 18.2107 83.5352 18.568 83.4339 19.064H82.1299C82.1619 18.5253 82.3112 18.072 82.5779 17.704C82.8499 17.3307 83.2312 17.048 83.7219 16.856C84.2125 16.664 84.7912 16.568 85.4579 16.568C86.1779 16.568 86.7752 16.6693 87.2499 16.872C87.7299 17.0747 88.0872 17.3733 88.3219 17.768C88.5619 18.1627 88.6819 18.648 88.6819 19.224V25H87.4179L87.3059 23.448C86.9912 24.0933 86.5859 24.5413 86.0899 24.792C85.5992 25.0373 85.0579 25.16 84.4659 25.16ZM84.9059 24.096C85.1885 24.096 85.4659 24.0453 85.7379 23.944C86.0152 23.8427 86.2659 23.7067 86.4899 23.536C86.7192 23.36 86.9032 23.1653 87.0419 22.952C87.1805 22.7333 87.2499 22.5093 87.2499 22.28V20.864L86.0259 20.888C85.3912 20.8987 84.8632 20.9627 84.4419 21.08C84.0205 21.1973 83.7032 21.3813 83.4899 21.632C83.2765 21.8827 83.1699 22.2107 83.1699 22.616C83.1699 23.08 83.3325 23.4427 83.6579 23.704C83.9832 23.9653 84.3992 24.096 84.9059 24.096Z" fill="white"/>
<path d="M22.1875 27.6485C24.7938 27.8828 27.1422 27.2266 29.2797 25.6235C27.0438 25.4266 25.5484 24.311 24.7141 22.2203C25.4453 22.3094 26.1297 22.3328 26.8563 22.136C24.4469 21.386 23.1625 19.811 22.9891 17.2703C23.7109 17.6078 24.3906 17.8516 25.1922 17.861C23.7625 16.7875 23.0313 15.3953 23.0594 13.6422C23.0734 12.836 23.2891 12.0766 23.7156 11.3594C26.3641 14.4578 29.6875 16.1735 33.7797 16.4594C33.7563 16.2813 33.7422 16.1407 33.7234 15.9953C33.3859 13.3985 35.0734 11.036 37.6516 10.5438C39.2688 10.2344 40.6984 10.661 41.9078 11.7766C42.0953 11.9453 42.2547 11.9828 42.4891 11.9219C43.4313 11.6828 44.3266 11.336 45.1938 10.8672C44.8609 11.9641 44.1766 12.7891 43.2484 13.4828C43.4594 13.4453 43.675 13.4172 43.8859 13.375C44.1063 13.3282 44.3266 13.2766 44.5469 13.2157C44.7578 13.1594 44.9641 13.0938 45.1703 13.0235C45.3813 12.9532 45.5922 12.8735 45.8406 12.8313C45.7188 13 45.6016 13.1782 45.4703 13.3422C44.9266 14.0313 44.2984 14.636 43.6094 15.175C43.5391 15.2313 43.4781 15.3532 43.4828 15.4375C43.5203 17.1016 43.2859 18.7235 42.7469 20.2985C41.6875 23.4016 39.8406 25.9141 37.0703 27.7094C35.7016 28.5953 34.2063 29.1766 32.6078 29.5141C31.0234 29.8469 29.4297 29.9078 27.8313 29.7203C26.2281 29.5328 24.7047 29.0594 23.2703 28.3188C22.8906 28.1266 22.525 27.911 22.1547 27.7047C22.1688 27.686 22.1781 27.6672 22.1875 27.6485Z" fill="white"/>
</svg>
