<svg width="136" height="56" viewBox="0 0 136 56" fill="none" xmlns="http://www.w3.org/2000/svg">
<rect opacity="0.9" width="136" height="56" rx="28" fill="white"/>
<path d="M33.0189 15.4504L55.4692 28.5265L32.9198 41.431L33.0189 15.4504Z" fill="#333333"/>
<path d="M77.924 34V24.7945H75.731V23.392C76.4337 23.392 77.0003 23.3268 77.431 23.1965C77.8673 23.0605 78.1932 22.8678 78.4085 22.6185C78.6238 22.3635 78.7513 22.0603 78.791 21.709H80.44V34H77.924ZM86.9365 34V25.211H89.3675V26.452C89.6339 26.0667 89.9909 25.7352 90.4385 25.4575C90.8919 25.1798 91.4614 25.041 92.147 25.041C92.4474 25.041 92.7534 25.0948 93.065 25.2025C93.3767 25.3102 93.6685 25.4688 93.9405 25.6785C94.2182 25.8825 94.442 26.1403 94.612 26.452C94.8954 26.0497 95.2665 25.7153 95.7255 25.449C96.1902 25.177 96.7059 25.041 97.2725 25.041C97.6012 25.041 97.9327 25.0948 98.267 25.2025C98.607 25.3102 98.9187 25.4858 99.202 25.7295C99.4854 25.9732 99.712 26.299 99.882 26.707C100.058 27.1093 100.146 27.608 100.146 28.203V34H97.6635V28.509C97.6635 28.1577 97.5927 27.8772 97.451 27.6675C97.315 27.4522 97.1394 27.2992 96.924 27.2085C96.7144 27.1122 96.4905 27.064 96.2525 27.064C96.0315 27.064 95.8077 27.1093 95.581 27.2C95.3544 27.285 95.1617 27.4238 95.003 27.6165C94.8444 27.8092 94.765 28.0613 94.765 28.373V34H92.2915V28.288C92.2915 28.0217 92.2207 27.7978 92.079 27.6165C91.9374 27.4352 91.7589 27.2992 91.5435 27.2085C91.3339 27.1122 91.1185 27.064 90.8975 27.064C90.6709 27.064 90.4442 27.1122 90.2175 27.2085C89.9909 27.2992 89.801 27.4437 89.648 27.642C89.495 27.8347 89.4185 28.0783 89.4185 28.373V34H86.9365ZM104.659 25.211V34H102.288V25.211H104.659ZM104.685 21.7175V23.953H102.271V21.7175H104.685ZM106.958 34V25.211H109.398V26.452C109.534 26.2367 109.709 26.0298 109.925 25.8315C110.146 25.6275 110.423 25.4603 110.758 25.33C111.092 25.1997 111.489 25.1345 111.948 25.1345C112.486 25.1345 112.987 25.2393 113.452 25.449C113.922 25.6587 114.302 25.9902 114.591 26.4435C114.88 26.8912 115.025 27.4777 115.025 28.203V34H112.543V28.509C112.543 28.033 112.401 27.676 112.118 27.438C111.834 27.2 111.489 27.081 111.081 27.081C110.809 27.081 110.545 27.1292 110.29 27.2255C110.041 27.3218 109.837 27.4663 109.678 27.659C109.519 27.8517 109.44 28.0897 109.44 28.373V34H106.958Z" fill="black"/>
</svg>
