<svg width="22" height="22" viewBox="0 0 22 22" fill="none" xmlns="http://www.w3.org/2000/svg">
<path d="M19.9375 4.125H2.0625H2.0075C1.9596 4.11849 1.91103 4.11849 1.86313 4.125L1.74625 4.17312C1.70885 4.19114 1.67414 4.21428 1.64313 4.24187C1.60401 4.26847 1.56923 4.30094 1.54 4.33812L1.49875 4.37937C1.49616 4.39992 1.49616 4.4207 1.49875 4.44125C1.47629 4.48294 1.45788 4.52668 1.44375 4.57187C1.4149 4.62661 1.39186 4.68422 1.375 4.74375V4.8125V17.1875C1.375 17.3698 1.44743 17.5447 1.57636 17.6736C1.7053 17.8026 1.88016 17.875 2.0625 17.875H19.9375C20.1198 17.875 20.2947 17.8026 20.4236 17.6736C20.5526 17.5447 20.625 17.3698 20.625 17.1875V4.8125C20.625 4.63016 20.5526 4.45529 20.4236 4.32636C20.2947 4.19743 20.1198 4.125 19.9375 4.125ZM11 10.1819L4.2625 5.5H18.6244L11 10.1819ZM2.75 16.5V6.12562L10.6081 11.5637C10.648 11.5871 10.6893 11.6078 10.7319 11.6256H10.7869C10.8545 11.6567 10.9263 11.6776 11 11.6875C11.0978 11.6849 11.1939 11.6615 11.2819 11.6187H11.33L19.25 6.73062V16.5H2.75Z" fill="#1B1B1B"/>
</svg>
