<svg width="40" height="40" viewBox="0 0 40 40" fill="none" xmlns="http://www.w3.org/2000/svg">
<g clip-path="url(#clip0_28_15)">
<circle cx="20" cy="20" r="20" fill="#D9D9D9"/>
<path d="M28.9375 13.125H11.0625H11.0075C10.9596 13.1185 10.911 13.1185 10.8631 13.125L10.7462 13.1731C10.7088 13.1911 10.6741 13.2143 10.6431 13.2419C10.604 13.2685 10.5692 13.3009 10.54 13.3381L10.4988 13.3794C10.4962 13.3999 10.4962 13.4207 10.4988 13.4412C10.4763 13.4829 10.4579 13.5267 10.4437 13.5719C10.4149 13.6266 10.3919 13.6842 10.375 13.7437V13.8125V26.1875C10.375 26.3698 10.4474 26.5447 10.5764 26.6736C10.7053 26.8026 10.8802 26.875 11.0625 26.875H28.9375C29.1198 26.875 29.2947 26.8026 29.4236 26.6736C29.5526 26.5447 29.625 26.3698 29.625 26.1875V13.8125C29.625 13.6302 29.5526 13.4553 29.4236 13.3264C29.2947 13.1974 29.1198 13.125 28.9375 13.125ZM20 19.1819L13.2625 14.5H27.6244L20 19.1819ZM11.75 25.5V15.1256L19.6081 20.5637C19.648 20.5871 19.6893 20.6078 19.7319 20.6256H19.7869C19.8545 20.6567 19.9263 20.6776 20 20.6875C20.0978 20.6849 20.1939 20.6615 20.2819 20.6187H20.33L28.25 15.7306V25.5H11.75Z" fill="#1B1B1B"/>
</g>
<defs>
<clipPath id="clip0_28_15">
<rect width="40" height="40" fill="white"/>
</clipPath>
</defs>
</svg>
