<svg width="40" height="40" viewBox="0 0 40 40" fill="none" xmlns="http://www.w3.org/2000/svg">
<g clip-path="url(#clip0_28_16)">
<circle cx="20" cy="20" r="20" fill="#D9D9D9"/>
<path d="M20.0009 10.8351C14.9391 10.8351 10.8351 14.939 10.8351 20.0009C10.8351 24.575 14.1865 28.3664 18.5691 29.0566V22.651H16.2407V20.0009H18.5691V17.9814C18.5691 15.6824 19.9376 14.4147 22.0304 14.4147C23.0332 14.4147 24.0837 14.5934 24.0837 14.5934V16.8475H22.9251C21.7884 16.8475 21.4327 17.5552 21.4327 18.2803V19.999H23.9728L23.5667 22.6491H21.4327V29.0548C25.8153 28.3682 29.1666 24.576 29.1666 20.0009C29.1666 14.939 25.0627 10.8351 20.0009 10.8351Z" fill="#1B1B1B"/>
</g>
<defs>
<clipPath id="clip0_28_16">
<rect width="40" height="40" fill="white"/>
</clipPath>
</defs>
</svg>
