<svg width="40" height="40" viewBox="0 0 40 40" fill="none" xmlns="http://www.w3.org/2000/svg">
<g clip-path="url(#clip0_28_17)">
<circle cx="20" cy="20" r="20" fill="#D9D9D9"/>
<g clip-path="url(#clip1_28_17)">
<path d="M29.1667 24.51V27.26C29.1677 27.5153 29.1154 27.768 29.0132 28.0019C28.9109 28.2358 28.7609 28.4458 28.5728 28.6184C28.3846 28.791 28.1625 28.9224 27.9207 29.0042C27.6789 29.0859 27.4226 29.1163 27.1684 29.0933C24.3476 28.7868 21.6381 27.823 19.2575 26.2792C17.0427 24.8718 15.1649 22.994 13.7575 20.7792C12.2083 18.3878 11.2442 15.6651 10.9434 12.8317C10.9204 12.5782 10.9506 12.3227 11.0318 12.0815C11.1131 11.8403 11.2436 11.6186 11.4152 11.4307C11.5868 11.2427 11.7957 11.0925 12.0285 10.9897C12.2613 10.8868 12.513 10.8336 12.7675 10.8333H15.5175C15.9624 10.829 16.3937 10.9865 16.731 11.2766C17.0683 11.5667 17.2886 11.9695 17.3509 12.41C17.4669 13.2901 17.6822 14.1542 17.9925 14.9858C18.1159 15.3139 18.1425 15.6705 18.0694 16.0133C17.9963 16.3561 17.8265 16.6708 17.58 16.92L16.4159 18.0842C17.7208 20.3791 19.6209 22.2792 21.9159 23.5842L23.08 22.42C23.3293 22.1736 23.6439 22.0037 23.9867 21.9306C24.3295 21.8575 24.6861 21.8842 25.0142 22.0075C25.8459 22.3178 26.71 22.5331 27.59 22.6492C28.0353 22.712 28.442 22.9363 28.7327 23.2794C29.0234 23.6225 29.1778 24.0605 29.1667 24.51Z" stroke="#1B1B1B" stroke-width="2" stroke-linecap="round" stroke-linejoin="round"/>
</g>
</g>
<defs>
<clipPath id="clip0_28_17">
<rect width="40" height="40" fill="white"/>
</clipPath>
<clipPath id="clip1_28_17">
<rect width="22" height="22" fill="white" transform="translate(9 9)"/>
</clipPath>
</defs>
</svg>
