<svg width="200" height="30" viewBox="0 0 200 30" fill="none" xmlns="http://www.w3.org/2000/svg">
<g clip-path="url(#clip0_2_12)">
<path d="M26.789 22.2381L21.0459 6.52516H16.0367L24.2752 29.1195H29.2844L37.5229 6.52516H32.5138L26.789 22.2381Z" fill="#1B1B1B"/>
<path d="M11.1927 16.3317C10.7523 16.1254 8.91743 15.3004 8.5688 15.1504C6.88073 14.4004 6.05504 13.5753 6.05504 12.6003C6.05504 11.5878 6.82568 10.594 8.42201 10.594C9.54128 10.594 10.5505 11.1378 11.5413 12.2253L15.0275 9.63774C13.633 7.46269 11.0642 6.11266 8.29357 6.11266C4.6422 6.11266 1.41284 8.53147 1.41284 12.5816C1.41284 15.3941 2.97247 17.5879 6.18348 18.9755C7.11926 19.388 7.77981 19.6692 8.51375 19.988C9.57798 20.4568 11.2844 21.1693 11.2844 22.7256C11.2844 24.2631 9.77981 25.0694 8.16513 25.0694C6.71559 25.0694 5.1743 24.1319 3.8532 22.4256L0.201828 25.1444C1.61467 27.3007 4.47706 29.5695 8.31192 29.5695C12.6238 29.5695 15.9816 26.8694 15.9816 22.6693C15.9816 19.913 14.422 17.8317 11.1927 16.3317Z" fill="#1B1B1B"/>
<path d="M46.8624 24.9756C45.7982 24.9756 44.8991 24.3194 44.422 23.3818C44.055 22.6693 44.055 21.5443 44.055 20.588V11.2128H49.156L50.8624 6.54391H44.0367V0.09375H39.3578V21.3193C39.3578 22.2943 39.4128 23.1943 39.7798 24.3756C40.789 27.3944 43.5596 29.5507 46.8624 29.5507C48.7523 29.5507 50.6789 28.8007 52.1101 27.4507L49.1743 24.0194C48.5504 24.5819 47.7064 24.9756 46.8624 24.9756Z" fill="#1B1B1B"/>
<path d="M79.0826 26.1569L65.9817 6.84392H64.0734V28.782H65.7982V9.52523L78.2752 27.9007C78.8257 28.707 79.0642 28.8007 79.6881 28.8007H80.0183C80.5321 28.8007 80.789 28.557 80.789 27.9007V6.84392H79.0826V26.1569Z" fill="#1B1B1B"/>
<path d="M93.266 18.6005L87.0275 6.84392H85.0642L92.3119 20.363V28.8007H94.1468V20.363L101.45 6.84392H99.5229L93.266 18.6005Z" fill="#1B1B1B"/>
<path d="M119.725 16.9129H107.706V6.84392H105.872V28.8007H107.706V18.3942H119.725V28.8007H121.578V6.84392H119.725V16.9129Z" fill="#1B1B1B"/>
<path d="M127.339 28.8007H141.138V27.3194H129.174V18.2255H139.651V16.7629H129.174V8.32521H141.138V6.84392H127.339V28.8007Z" fill="#1B1B1B"/>
<path d="M145.156 8.32521H152.183V28.8007H154.037V8.32521H160.991V6.84392H145.156V8.32521Z" fill="#1B1B1B"/>
<path d="M165.101 28.8007H178.917V27.3194H166.954V18.2255H177.413V16.7629H166.954V8.32521H178.917V6.84392H165.101V28.8007Z" fill="#1B1B1B"/>
<path d="M199.56 13.6878C199.56 9.76899 196.587 6.86267 193.064 6.86267H184.294V28.8007H186.128V20.5318H192.697L197.413 28.8007H199.505L194.624 20.3443C197.431 19.613 199.56 17.0067 199.56 13.6878ZM192.587 19.0505H186.11V8.32521H192.587C195.413 8.32521 197.706 10.369 197.706 13.6878C197.706 17.0067 195.413 19.0505 192.587 19.0505Z" fill="#1B1B1B"/>
</g>
<defs>
<clipPath id="clip0_2_12">
<rect width="200" height="29.8507" fill="white"/>
</clipPath>
</defs>
</svg>
