<svg width="214" height="32" viewBox="0 0 214 32" fill="none" xmlns="http://www.w3.org/2000/svg">
<path d="M28.6642 23.2855L22.5191 6.83301H17.1592L25.9745 30.4908H31.3343L40.1495 6.83301H34.7897L28.6642 23.2855Z" fill="white"/>
<path d="M11.9761 17.1004C11.5049 16.8844 9.54163 16.0206 9.1686 15.8635C7.36236 15.0782 6.47888 14.2143 6.47888 13.1934C6.47888 12.1332 7.30347 11.0927 9.01154 11.0927C10.2092 11.0927 11.289 11.662 12.3492 12.8008L16.0794 10.0914C14.5873 7.81397 11.8387 6.40039 8.87411 6.40039C4.96714 6.40039 1.51172 8.93305 1.51172 13.1738C1.51172 16.1187 3.18053 18.4158 6.61631 19.8686C7.61759 20.3006 8.32438 20.5951 9.1097 20.9288C10.2484 21.4197 12.0743 22.1657 12.0743 23.7953C12.0743 25.4052 10.4644 26.2494 8.73668 26.2494C7.18567 26.2494 5.53649 25.2677 4.12291 23.4811L0.215942 26.3279C1.72769 28.5857 4.79044 30.9613 8.89374 30.9613C13.5075 30.9613 17.1003 28.1342 17.1003 23.7364C17.1003 20.8503 15.4315 18.671 11.9761 17.1004Z" fill="white"/>
<path d="M50.1427 26.1517C49.004 26.1517 48.042 25.4645 47.5315 24.4829C47.1388 23.7368 47.1388 22.5588 47.1388 21.5575V11.741H52.5968L54.4227 6.85239H47.1192V0.0986328H42.1128V22.3232C42.1128 23.3441 42.1717 24.2865 42.5644 25.5234C43.6442 28.6843 46.6088 30.9421 50.1427 30.9421C52.1649 30.9421 54.2264 30.1568 55.7577 28.7432L52.6165 25.1504C51.9489 25.7394 51.0458 26.1517 50.1427 26.1517Z" fill="white"/>
<path d="M84.6183 27.389L70.6004 7.16699H68.5585V30.1376H70.404V9.97451L83.7545 29.2149C84.3435 30.0591 84.5987 30.1573 85.2662 30.1573H85.6196C86.1694 30.1573 86.4442 29.902 86.4442 29.2149V7.16699H84.6183V27.389Z" fill="white"/>
<path d="M99.7946 19.4769L93.1194 7.16699H91.0187L98.7737 21.3224V30.1573H100.737V21.3224L108.551 7.16699H106.49L99.7946 19.4769Z" fill="white"/>
<path d="M128.105 17.7099H115.246V7.16699H113.283V30.1573H115.246V19.2609H128.105V30.1573H130.088V7.16699H128.105V17.7099Z" fill="white"/>
<path d="M136.253 30.1573H151.017V28.6063H138.216V19.0842H149.427V17.5529H138.216V8.718H151.017V7.16699H136.253V30.1573Z" fill="white"/>
<path d="M155.317 8.718H162.836V30.1573H164.819V8.718H172.26V7.16699H155.317V8.718Z" fill="white"/>
<path d="M176.658 30.1573H191.442V28.6063H178.641V19.0842H189.832V17.5529H178.641V8.718H191.442V7.16699H176.658V30.1573Z" fill="white"/>
<path d="M213.529 14.3329C213.529 10.2296 210.348 7.18652 206.579 7.18652H197.194V30.1572H199.157V21.499H206.186L211.232 30.1572H213.47L208.247 21.3027C211.251 20.537 213.529 17.808 213.529 14.3329ZM206.068 19.948H199.138V8.7179H206.068C209.092 8.7179 211.546 10.8579 211.546 14.3329C211.546 17.808 209.092 19.948 206.068 19.948Z" fill="white"/>
</svg>
